Coordinates
version=1
nRows=8
nColumns=33
inDegrees=yes

Units are S.I. units (second, meters, Newtons, ...)
Angles are in degrees.

endheader
time	ground_thorax_rot_x	ground_thorax_rot_y	ground_thorax_rot_z	ground_thorax_tx	ground_thorax_ty	ground_thorax_tz	clav_prot_r	clav_elev_r	scapula_abduction_r	scapula_elevation_r	scapula_upward_rot_r	scapula_winging_r	shoulder_elv_r	plane_of_elev_r	axial_rot_r	elbow_flexion_r	pro_sup_r	wrist_flex_r	wrist_dev_r	clav_prot_l	clav_elev_l	scapula_abduction_l	scapula_elevation_l	scapula_upward_rot_l	scapula_winging_l	shoulder_elv_l	plane_of_elev_l	axial_rot_l	elbow_flexion_l	pro_sup_l	wrist_flex_l	wrist_dev_l
      6.71000000	     -1.63043798	      1.66760688	     13.54294705	     -0.11580360	      1.03099315	      0.01003239	      7.40644494	    -14.03966132	     11.30070452	     -4.88458417	     -4.18831722	      0.51842266	    -35.28469553	    -75.28797275	    101.33594475	    -68.41461324	   -179.94631346	     33.02940900	     -8.42654832	     11.57085467	     -2.49415515	    -15.43807352	    -19.68964178	    -35.95235283	      0.01004811	     58.68866937	    -30.11717164	      6.18072167	     69.47631485	     10.26921591	      5.62366623	    -24.99999983
      6.72000000	     -1.48955265	      1.45993577	     13.42488913	     -0.11559788	      1.03146270	      0.01017606	      7.58344866	    -13.77571765	     11.87349538	     -4.91086537	     -3.53704754	      0.16302609	    -38.91593488	    -75.11607607	     97.95426618	    -67.47810814	   -175.92415374	     35.17867475	    -10.13442971	     11.09641724	     -2.25358242	    -14.51169381	    -19.79091411	    -35.61873908	     -0.36703468	     58.55183825	    -31.29926084	      5.01929017	     69.73331051	     11.61322115	      3.12432220	    -24.99999983
      6.73000000	     -1.34443492	      1.29841451	     13.45395565	     -0.11556308	      1.03119311	      0.01026328	      7.51738409	    -13.40263781	     11.64591656	     -4.44741219	     -3.80502315	      0.08653281	    -39.43678206	    -75.29189218	     97.79134252	    -67.46241635	   -175.76530790	     35.19840062	    -10.16999012	     11.00019128	     -2.01002256	    -14.40905054	    -20.26063746	    -36.09664585	     -0.51910723	     58.27010798	    -31.97774285	      4.81453831	     70.09109337	     11.62195658	      3.06178661	    -24.99999983
      6.74000000	     -1.16780481	      1.19871652	     13.40361615	     -0.11565469	      1.03147361	      0.01049024	      7.74789652	    -13.09443448	     12.23768878	     -4.35804228	     -3.32612712	     -0.28968735	    -42.57634387	    -74.98901450	     94.76060618	    -66.61854971	   -172.38438656	     37.06376948	    -11.68304234	     10.73266145	     -1.87309438	    -13.97145623	    -20.54089853	    -36.37450232	     -0.77360467	     58.40686160	    -32.66405560	      3.72572425	     70.03010456	     12.52173740	      0.96576695	    -24.99999983
      6.75000000	     -1.06029768	      1.05660274	     13.36722513	     -0.11551166	      1.03147039	      0.01048285	      7.66874054	    -12.85026925	     12.01222112	     -4.04440347	     -3.53091156	     -0.30468202	    -42.89574327	    -75.08960090	     94.65594014	    -66.32269907	   -172.27393274	     37.03469825	    -11.71760211	     10.62958148	     -1.69245055	    -13.85522794	    -20.92358175	    -36.79591491	     -0.91891314	     58.10430398	    -33.25765490	      3.64487967	     70.17092282	     12.54566976	      0.91779222	    -24.99999983
      6.76000000	     -0.96678825	      0.90488094	     13.02567174	     -0.11560052	      1.03167890	      0.01054492	      7.63485852	    -12.77153059	     11.90962284	     -3.92711050	     -3.63450862	     -0.29816400	    -42.98055346	    -75.09327267	     94.61371045	    -66.18139406	   -172.21921709	     37.05456733	    -11.74375345	     10.60477732	     -1.59895697	    -13.86996186	    -21.16798147	    -37.11616354	     -0.97863222	     57.88236824	    -33.64231667	      3.45836509	     70.01247838	     12.59834246	      0.91919739	    -24.99999983
      6.77000000	     -0.95714931	      0.92607643	     13.28360463	     -0.11538888	      1.03157147	      0.01068302	      7.62358780	    -12.46650553	     11.97508580	     -3.73395282	     -3.42202962	     -0.46066564	    -45.32954655	    -74.94270790	     92.46040142	    -65.05695300	   -168.03013911	     39.92552762	    -13.59059385	     10.39079008	     -1.05888755	    -13.39889378	    -21.62487141	    -36.93407706	     -1.21554424	     57.71121081	    -34.31788968	      2.15422865	     69.64674171	     14.45763232	     -1.27962835	    -24.99999983
      6.78000000	     -0.89625358	      0.78523677	     13.26644179	     -0.11525301	      1.03179496	      0.01068464	      7.57033126	    -12.31472292	     11.80793546	     -3.51970506	     -3.59332292	     -0.45589000	    -45.57546607	    -74.97940693	     92.36844191	    -64.65610257	   -167.90417621	     39.85200179	    -13.65987801	     10.31087623	     -0.99583988	    -13.32455807	    -21.86275133	    -37.29359546	     -1.32285978	     57.44155164	    -34.84640007	      2.09813196	     69.35522799	     14.54137858	     -1.32736353	    -24.99999983
